<?xml version="1.0" standalone="no"?>
<!DOCTYPE svg PUBLIC "-//W3C//DTD SVG 20010904//EN"
 "http://www.w3.org/TR/2001/REC-SVG-20010904/DTD/svg10.dtd">
<svg version="1.0" xmlns="http://www.w3.org/2000/svg"
 width="932.000000pt" height="317.000000pt" viewBox="0 0 932.000000 317.000000"
 preserveAspectRatio="xMidYMid meet">

<g transform="translate(0.000000,317.000000) scale(0.100000,-0.100000)"
fill="#000000" stroke="none">
<path d="M7735 3051 c-17 -10 -100 -56 -185 -103 -465 -254 -480 -263 -480
-281 0 -18 2 -18 33 1 17 11 174 97 347 192 173 94 318 175 322 178 4 4 4 13
0 19 -6 9 -15 7 -37 -6z"/>
<path d="M6780 2526 c-151 -83 -283 -156 -292 -161 -10 -6 -14 -15 -10 -22 6
-9 89 32 282 138 277 152 305 169 299 186 -2 5 -128 -58 -279 -141z"/>
<path d="M6363 2298 c-25 -12 -31 -38 -10 -38 17 0 57 29 57 41 0 12 -19 11
-47 -3z"/>
<path d="M6286 2255 c-11 -8 -15 -15 -9 -15 7 0 15 5 18 10 3 6 11 10 17 10 6
0 6 -6 -2 -15 -11 -13 -10 -14 4 -9 17 7 17 25 0 31 -5 1 -18 -4 -28 -12z"/>
<path d="M6050 2125 c-148 -81 -182 -105 -145 -105 12 0 295 149 312 164 1 1
-1 7 -5 13 -5 9 -55 -14 -162 -72z"/>
<path d="M5370 1752 c-212 -116 -306 -173 -308 -186 -4 -16 5 -14 59 16 35 19
170 93 299 163 245 134 265 146 259 164 -2 6 -141 -65 -309 -157z"/>
<path d="M4893 1492 c-78 -42 -142 -83 -143 -90 0 -7 -5 -10 -10 -7 -6 3 -44
-12 -85 -35 l-74 -41 -3 73 -3 73 -50 -115 c-49 -113 -50 -117 -53 -232 l-4
-118 166 0 166 0 0 45 0 45 -110 0 -110 0 0 98 0 97 78 43 c42 23 84 47 92 52
8 5 79 43 158 85 80 43 142 83 142 91 0 8 -3 14 -7 14 -5 -1 -72 -36 -150 -78z"/>
<path d="M765 1509 c-17 -4 -46 -25 -65 -44 -31 -32 -35 -42 -35 -90 0 -74 30
-104 152 -151 52 -20 98 -44 103 -54 28 -52 -3 -90 -73 -90 -38 0 -53 6 -82
31 -34 30 -38 31 -75 20 -23 -7 -40 -18 -40 -26 0 -25 73 -90 116 -103 135
-40 258 16 270 124 9 85 -36 133 -166 175 -75 25 -100 43 -100 74 0 58 94 76
150 29 29 -25 34 -26 71 -15 21 6 39 17 39 24 0 17 -69 81 -103 95 -32 14
-118 14 -162 1z"/>
<path d="M2595 1506 c-87 -43 -116 -113 -79 -192 16 -34 84 -74 175 -103 109
-35 103 -131 -8 -131 -33 0 -50 7 -78 31 -35 31 -37 31 -80 19 -44 -12 -44
-13 -31 -39 33 -63 104 -101 189 -101 67 0 114 15 150 49 26 24 28 30 24 81
-3 30 -3 44 0 30 7 -38 23 -49 23 -17 0 26 -24 97 -33 97 -2 0 -3 -12 -1 -27
3 -20 1 -18 -7 8 -12 41 -36 58 -129 89 -75 25 -100 44 -100 75 0 57 94 76
148 30 17 -14 33 -25 37 -25 3 0 4 21 1 48 l-5 47 10 -42 c10 -43 27 -53 58
-34 9 6 10 13 3 27 -15 28 -61 68 -68 61 -4 -4 -13 1 -19 10 -17 24 -138 29
-180 9z"/>
<path d="M3661 1506 c-19 -7 -36 -17 -37 -22 -2 -5 -17 -66 -35 -137 -18 -70
-34 -125 -36 -123 -2 2 10 59 27 126 18 67 30 124 27 127 -10 10 -67 -81 -82
-130 -16 -55 -19 -105 -8 -158 l7 -34 13 30 13 30 -6 -35 c-11 -54 -7 -70 24
-109 93 -118 292 -105 359 23 17 32 12 38 -37 55 -29 10 -35 9 -44 -6 -5 -9
-20 -27 -34 -40 -30 -28 -96 -31 -131 -7 -80 56 -80 262 0 318 13 9 41 16 62
16 31 0 46 -7 72 -33 30 -30 34 -31 70 -21 22 6 40 15 42 21 6 17 -56 82 -98
104 -43 22 -116 24 -168 5z"/>
<path d="M6145 1508 c-54 -19 -97 -59 -124 -117 -22 -47 -26 -69 -25 -141 1
-92 15 -135 61 -190 90 -107 286 -88 350 34 17 32 12 38 -37 55 -29 10 -35 9
-44 -6 -22 -40 -59 -63 -100 -63 -52 0 -83 21 -107 74 -38 83 -16 219 42 260
13 9 41 16 62 16 31 0 46 -7 72 -33 30 -30 34 -31 70 -21 22 6 40 15 42 21 6
17 -56 82 -98 104 -42 21 -115 24 -164 7z"/>
<path d="M8232 1499 c-178 -88 -176 -409 3 -490 55 -25 138 -24 192 2 41 20
107 93 100 113 -2 5 -21 14 -43 21 -38 10 -40 10 -75 -27 -30 -32 -43 -38 -76
-38 -79 0 -123 62 -123 175 0 113 44 175 123 175 32 0 46 -6 71 -33 31 -33 31
-34 74 -19 41 13 41 14 28 40 -47 91 -176 129 -274 81z"/>
<path d="M8665 1501 c-51 -23 -75 -50 -85 -96 -18 -82 24 -138 132 -174 95
-32 128 -55 128 -90 0 -41 -24 -61 -71 -61 -44 0 -72 11 -106 43 -20 18 -27
19 -63 8 -22 -6 -40 -14 -40 -18 0 -3 9 -20 20 -39 30 -48 109 -84 184 -84
113 0 186 60 186 151 0 76 -38 114 -151 154 -113 39 -141 73 -99 115 35 35
122 21 152 -24 4 -6 23 -5 53 5 l45 14 -24 36 c-50 73 -172 101 -261 60z"/>
<path d="M1052 1468 l3 -43 73 -3 72 -3 0 -209 0 -210 50 0 50 0 0 210 0 210
70 0 70 0 0 45 0 45 -196 0 -195 0 3 -42z"/>
<path d="M1564 1403 c-21 -60 -61 -173 -90 -253 l-51 -145 45 -3 c62 -4 68 0
82 57 l12 51 93 0 94 0 17 -55 18 -55 54 0 c39 0 53 3 50 13 -3 6 -43 121 -89
254 l-84 243 -56 0 -57 0 -38 -107z m126 -98 c12 -44 25 -86 27 -92 4 -10 -11
-13 -56 -13 -36 0 -61 4 -61 11 0 24 54 189 60 182 4 -5 17 -44 30 -88z"/>
<path d="M1870 1465 l0 -45 75 0 75 0 0 -210 0 -210 50 0 50 0 0 210 0 210 64
0 c68 0 75 6 76 68 l0 22 -195 0 -195 0 0 -45z"/>
<path d="M2320 1255 l0 -255 50 0 50 0 0 255 0 255 -50 0 -50 0 0 -255z"/>
<path d="M2890 1465 l0 -45 75 0 75 0 0 -210 0 -210 50 0 50 0 0 210 0 210 70
0 70 0 0 45 0 45 -195 0 -195 0 0 -45z"/>
<path d="M3340 1255 l0 -255 50 0 50 0 0 255 0 255 -50 0 -50 0 0 -255z"/>
<path d="M4087 1373 c-26 -76 -47 -149 -47 -162 0 -13 -3 -21 -7 -17 -6 5 -73
-165 -73 -186 0 -3 7 -8 16 -10 8 -2 -84 -57 -205 -123 -191 -104 -251 -145
-211 -145 7 0 494 263 506 274 1 0 -4 33 -12 71 -7 39 -13 79 -12 90 0 11 8
-18 17 -65 9 -47 21 -84 27 -83 5 1 47 22 94 48 46 25 88 44 94 42 5 -2 17
-25 26 -53 13 -39 22 -50 41 -52 19 -2 29 4 42 30 16 30 16 21 1 -17 -4 -11 0
-15 15 -15 26 0 26 1 -4 90 -14 40 -25 74 -25 75 0 1 21 15 48 32 45 28 50 36
100 156 29 69 55 133 58 142 5 12 -4 15 -50 15 l-56 0 0 -128 0 -128 -56 -27
c-31 -16 -57 -27 -59 -25 -1 2 -26 72 -55 156 l-53 152 -56 0 -56 0 -48 -137z
m163 -165 c0 -5 -27 -8 -60 -8 -33 0 -60 1 -60 3 0 5 50 171 56 187 5 12 63
-155 64 -182z m-107 -128 c-29 -17 -54 -30 -57 -30 -3 0 0 14 5 30 10 28 15
30 57 30 l47 0 -52 -30z"/>
<path d="M5014 1446 c1 -35 5 -59 9 -53 4 7 5 -19 2 -58 -3 -38 -7 -130 -9
-202 l-4 -133 55 0 56 0 -5 173 -5 172 54 -162 55 -163 37 0 36 0 55 166 55
166 -3 -176 -4 -176 51 0 51 0 0 255 0 255 -62 0 -63 0 -49 -148 c-27 -81 -53
-158 -58 -172 -9 -22 -16 -8 -58 119 -72 214 -65 201 -115 201 -33 0 -45 -4
-48 -17 -4 -17 -5 -17 -6 0 0 9 -7 17 -14 17 -10 0 -14 -17 -13 -64z m23 -23
c-3 -10 -5 -2 -5 17 0 19 2 27 5 18 2 -10 2 -26 0 -35z"/>
<path d="M5600 1255 l0 -255 175 0 175 0 0 45 0 45 -125 0 -124 0 3 58 c2 31
4 60 5 65 1 4 48 7 106 7 l105 0 0 45 0 45 -105 0 -105 0 0 39 c0 22 -3 46 -6
55 -5 14 9 16 120 16 l126 0 0 45 0 45 -175 0 -175 0 0 -255z"/>
<path d="M6491 1255 l0 -255 23 0 23 0 -18 108 c-11 59 -18 116 -18 127 1 11
11 -36 23 -105 19 -114 23 -125 44 -128 22 -3 22 -2 22 107 l0 111 90 0 90 0
0 -108 0 -109 50 -2 50 -1 -1 255 -1 255 -49 0 -48 0 -3 -102 -3 -103 -85 0
-85 0 -3 103 -3 102 -48 0 -49 0 -1 -255z m364 5 c-4 -23 -9 -39 -11 -37 -3 2
-2 23 2 46 4 23 9 40 11 37 3 -3 2 -23 -2 -46z m-18 -82 c-3 -7 -5 -2 -5 12 0
14 2 19 5 13 2 -7 2 -19 0 -25z m-10 -50 c-3 -7 -5 -2 -5 12 0 14 2 19 5 13 2
-7 2 -19 0 -25z m-10 -50 c-3 -7 -5 -2 -5 12 0 14 2 19 5 13 2 -7 2 -19 0 -25z
m-10 -50 c-3 -7 -5 -2 -5 12 0 14 2 19 5 13 2 -7 2 -19 0 -25z"/>
<path d="M7091 1488 c-5 -13 -43 -122 -86 -243 -43 -121 -80 -226 -82 -232 -4
-10 10 -13 51 -13 l55 0 16 55 16 55 93 0 92 0 18 -55 17 -55 54 0 54 0 -55
158 c-31 86 -69 193 -84 237 -15 44 -31 88 -35 98 -6 13 -19 17 -61 17 -47 0
-56 -3 -63 -22z m92 -286 c-19 -2 -46 -2 -62 0 l-28 3 30 103 31 103 31 -103
31 -103 -33 -3z"/>
<path d="M7440 1255 l0 -255 51 0 51 0 -4 174 -3 173 63 -121 c35 -67 77 -145
93 -173 l30 -53 55 0 54 0 0 255 0 255 -56 0 -56 0 4 -170 c2 -93 2 -170 1
-170 -1 0 -42 76 -90 170 l-88 170 -52 0 -53 0 0 -255z"/>
<path d="M7925 1255 l0 -255 53 0 52 0 0 255 0 255 -52 0 -53 0 0 -255z"/>
<path d="M3413 676 c-28 -19 -54 -31 -58 -28 -3 4 -3 -1 1 -11 3 -9 7 -17 9
-17 12 0 118 67 117 75 -1 19 -18 15 -69 -19z"/>
<path d="M3133 527 c-73 -40 -132 -78 -133 -85 0 -7 -5 -10 -10 -7 -6 4 -135
-62 -288 -146 -152 -84 -333 -183 -402 -221 -104 -57 -120 -68 -93 -68 22 0
141 60 408 208 207 114 421 231 476 260 143 76 192 106 191 117 -1 19 -20 12
-149 -58z"/>
<path d="M3675 248 c-16 -46 -30 -89 -33 -95 -2 -7 3 -13 12 -13 8 0 18 11 22
25 5 21 12 25 45 25 33 0 40 -4 45 -25 6 -23 34 -36 34 -16 0 5 -14 48 -31 95
-42 113 -56 114 -94 4z m68 -30 c-2 -5 -13 -8 -24 -8 -22 0 -24 16 -8 57 l11
28 13 -35 c7 -19 10 -38 8 -42z"/>
<path d="M3839 304 c-33 -35 -32 -104 1 -139 29 -31 79 -33 105 -5 25 27 11
38 -24 17 -25 -15 -30 -15 -49 -1 -31 22 -31 96 0 118 20 14 24 14 45 0 31
-20 50 -8 27 17 -25 28 -75 25 -105 -7z"/>
<path d="M4031 308 c-53 -141 -60 -168 -46 -168 9 0 20 11 25 25 8 20 16 25
45 25 29 0 37 -5 45 -25 5 -14 16 -25 25 -25 12 0 8 18 -19 93 -35 96 -58 120
-75 75z m49 -85 c0 -7 -11 -13 -25 -13 -28 0 -30 4 -13 51 l12 34 12 -30 c7
-17 13 -36 14 -42z"/>
<path d="M4160 236 l0 -96 36 0 c68 0 103 33 104 96 0 60 -24 85 -88 92 l-52
5 0 -97z m94 48 c35 -34 7 -114 -40 -114 -23 0 -24 3 -24 65 0 62 1 65 24 65
14 0 32 -7 40 -16z"/>
<path d="M4330 235 l0 -95 60 0 c47 0 60 3 60 15 0 11 -12 15 -46 15 -44 0
-45 1 -42 28 2 17 8 26 17 24 22 -5 61 7 61 18 0 6 -18 10 -40 10 -36 0 -40 3
-40 25 0 23 4 25 45 25 33 0 45 4 45 15 0 12 -13 15 -60 15 l-60 0 0 -95z"/>
<path d="M4482 239 c2 -61 7 -94 15 -96 8 -3 13 16 15 64 l3 68 23 -63 c13
-35 28 -62 34 -60 7 3 22 31 34 64 l23 59 0 -67 c1 -54 4 -68 16 -68 12 0 15
17 15 96 0 92 -1 95 -21 92 -17 -2 -27 -17 -42 -60 -12 -32 -23 -58 -27 -58
-3 0 -14 26 -26 58 -15 43 -26 58 -43 60 -21 3 -22 2 -19 -89z"/>
<path d="M4700 235 c0 -78 3 -95 15 -95 12 0 15 17 15 95 0 78 -3 95 -15 95
-12 0 -15 -17 -15 -95z"/>
<path d="M4793 315 c-25 -17 -39 -71 -29 -110 15 -61 80 -84 127 -46 28 22 18
41 -11 23 -35 -21 -69 -15 -81 15 -25 66 18 130 66 99 30 -20 35 -20 35 -1 0
33 -70 46 -107 20z"/>
<path d="M5000 235 l0 -95 43 0 c23 0 53 7 65 16 23 16 29 53 11 71 -8 8 -8
17 0 31 22 42 -11 72 -78 72 l-41 0 0 -95z m88 43 c-2 -17 -11 -24 -30 -26
-24 -3 -28 0 -28 22 0 22 4 26 31 26 26 0 30 -3 27 -22z m3 -65 c19 -19 3 -43
-31 -43 -26 0 -30 3 -30 28 0 23 4 28 25 27 13 0 29 -5 36 -12z"/>
<path d="M5188 320 c-23 -14 -41 -74 -33 -110 23 -105 155 -85 155 23 0 59
-29 97 -73 97 -18 0 -40 -5 -49 -10z m72 -30 c43 -43 8 -146 -41 -120 -28 16
-40 52 -29 91 15 51 38 61 70 29z"/>
<path d="M5340 234 l0 -97 51 5 c69 7 92 31 91 95 -1 63 -33 93 -98 93 l-44 0
0 -96z m98 54 c7 -7 12 -31 12 -55 0 -45 -17 -63 -59 -63 -19 0 -21 6 -21 65
0 65 0 65 28 65 15 0 33 -5 40 -12z"/>
<path d="M5518 276 c21 -37 32 -69 32 -96 0 -29 4 -40 15 -40 11 0 15 11 15
38 0 23 11 56 30 87 34 57 36 65 15 65 -8 0 -24 -19 -36 -41 l-21 -42 -22 39
c-12 21 -30 40 -40 42 -17 4 -15 -3 12 -52z"/>
</g>
</svg>
